$MeshFormat
2.2 0 8
$EndMeshFormat
$PhysicalNames
3
1 1 "cell"
0 2 "left"
0 3 "right"
$EndPhysicalNames
$Nodes
129
1 0.000000000000000e+00 0.0 0.0
2 5.234375000000000e-04 0.0 0.0
3 1.046875000000000e-03 0.0 0.0
4 1.570312500000000e-03 0.0 0.0
5 2.093750000000000e-03 0.0 0.0
6 2.617187500000000e-03 0.0 0.0
7 3.140625000000000e-03 0.0 0.0
8 3.664062500000000e-03 0.0 0.0
9 4.187500000000000e-03 0.0 0.0
10 4.710937500000000e-03 0.0 0.0
11 5.234375000000000e-03 0.0 0.0
12 5.757812500000001e-03 0.0 0.0
13 6.281250000000000e-03 0.0 0.0
14 6.804687500000000e-03 0.0 0.0
15 7.328125000000000e-03 0.0 0.0
16 7.851562500000001e-03 0.0 0.0
17 8.375000000000000e-03 0.0 0.0
18 8.898437500000000e-03 0.0 0.0
19 9.421875000000000e-03 0.0 0.0
20 9.945312500000001e-03 0.0 0.0
21 1.046875000000000e-02 0.0 0.0
22 1.099218750000000e-02 0.0 0.0
23 1.151562500000000e-02 0.0 0.0
24 1.203906250000000e-02 0.0 0.0
25 1.256250000000000e-02 0.0 0.0
26 1.308593750000000e-02 0.0 0.0
27 1.360937500000000e-02 0.0 0.0
28 1.413281250000000e-02 0.0 0.0
29 1.465625000000000e-02 0.0 0.0
30 1.517968750000000e-02 0.0 0.0
31 1.570312500000000e-02 0.0 0.0
32 1.622656250000000e-02 0.0 0.0
33 1.675000000000000e-02 0.0 0.0
34 1.727343750000000e-02 0.0 0.0
35 1.779687500000000e-02 0.0 0.0
36 1.832031250000000e-02 0.0 0.0
37 1.884375000000000e-02 0.0 0.0
38 1.936718750000000e-02 0.0 0.0
39 1.989062500000000e-02 0.0 0.0
40 2.041406250000000e-02 0.0 0.0
41 2.093750000000000e-02 0.0 0.0
42 2.146093750000000e-02 0.0 0.0
43 2.198437500000000e-02 0.0 0.0
44 2.250781250000000e-02 0.0 0.0
45 2.303125000000000e-02 0.0 0.0
46 2.355468750000000e-02 0.0 0.0
47 2.407812500000000e-02 0.0 0.0
48 2.460156250000000e-02 0.0 0.0
49 2.512500000000000e-02 0.0 0.0
50 2.564843750000000e-02 0.0 0.0
51 2.617187500000000e-02 0.0 0.0
52 2.669531250000000e-02 0.0 0.0
53 2.721875000000000e-02 0.0 0.0
54 2.774218750000000e-02 0.0 0.0
55 2.826562500000000e-02 0.0 0.0
56 2.878906250000000e-02 0.0 0.0
57 2.931250000000000e-02 0.0 0.0
58 2.983593750000000e-02 0.0 0.0
59 3.035937500000000e-02 0.0 0.0
60 3.088281250000000e-02 0.0 0.0
61 3.140625000000000e-02 0.0 0.0
62 3.192968750000000e-02 0.0 0.0
63 3.245312500000000e-02 0.0 0.0
64 3.297656250000000e-02 0.0 0.0
65 3.350000000000000e-02 0.0 0.0
66 3.402343750000000e-02 0.0 0.0
67 3.454687500000000e-02 0.0 0.0
68 3.507031250000000e-02 0.0 0.0
69 3.559375000000000e-02 0.0 0.0
70 3.611718750000000e-02 0.0 0.0
71 3.664062500000000e-02 0.0 0.0
72 3.716406250000000e-02 0.0 0.0
73 3.768750000000000e-02 0.0 0.0
74 3.821093750000000e-02 0.0 0.0
75 3.873437500000000e-02 0.0 0.0
76 3.925781250000000e-02 0.0 0.0
77 3.978125000000000e-02 0.0 0.0
78 4.030468750000001e-02 0.0 0.0
79 4.082812500000000e-02 0.0 0.0
80 4.135156250000000e-02 0.0 0.0
81 4.187500000000000e-02 0.0 0.0
82 4.239843750000000e-02 0.0 0.0
83 4.292187500000001e-02 0.0 0.0
84 4.344531250000000e-02 0.0 0.0
85 4.396875000000000e-02 0.0 0.0
86 4.449218750000000e-02 0.0 0.0
87 4.501562500000000e-02 0.0 0.0
88 4.553906250000000e-02 0.0 0.0
89 4.606250000000001e-02 0.0 0.0
90 4.658593750000000e-02 0.0 0.0
91 4.710937500000000e-02 0.0 0.0
92 4.763281250000000e-02 0.0 0.0
93 4.815625000000000e-02 0.0 0.0
94 4.867968750000001e-02 0.0 0.0
95 4.920312500000000e-02 0.0 0.0
96 4.972656250000000e-02 0.0 0.0
97 5.025000000000000e-02 0.0 0.0
98 5.077343750000000e-02 0.0 0.0
99 5.129687500000001e-02 0.0 0.0
100 5.182031250000000e-02 0.0 0.0
101 5.234375000000000e-02 0.0 0.0
102 5.286718750000000e-02 0.0 0.0
103 5.339062500000000e-02 0.0 0.0
104 5.391406250000001e-02 0.0 0.0
105 5.443750000000000e-02 0.0 0.0
106 5.496093750000000e-02 0.0 0.0
107 5.548437500000000e-02 0.0 0.0
108 5.600781250000000e-02 0.0 0.0
109 5.653125000000001e-02 0.0 0.0
110 5.705468750000001e-02 0.0 0.0
111 5.757812500000000e-02 0.0 0.0
112 5.810156250000000e-02 0.0 0.0
113 5.862500000000000e-02 0.0 0.0
114 5.914843750000000e-02 0.0 0.0
115 5.967187500000001e-02 0.0 0.0
116 6.019531250000000e-02 0.0 0.0
117 6.071875000000000e-02 0.0 0.0
118 6.124218750000000e-02 0.0 0.0
119 6.176562500000000e-02 0.0 0.0
120 6.228906250000001e-02 0.0 0.0
121 6.281250000000001e-02 0.0 0.0
122 6.333593750000001e-02 0.0 0.0
123 6.385937500000001e-02 0.0 0.0
124 6.438281250000000e-02 0.0 0.0
125 6.490625000000000e-02 0.0 0.0
126 6.542968750000000e-02 0.0 0.0
127 6.595312500000000e-02 0.0 0.0
128 6.647656250000000e-02 0.0 0.0
129 6.700000000000000e-02 0.0 0.0
$EndNodes
$Elements
130
1 1 2 1 1 1 2
2 1 2 1 1 2 3
3 1 2 1 1 3 4
4 1 2 1 1 4 5
5 1 2 1 1 5 6
6 1 2 1 1 6 7
7 1 2 1 1 7 8
8 1 2 1 1 8 9
9 1 2 1 1 9 10
10 1 2 1 1 10 11
11 1 2 1 1 11 12
12 1 2 1 1 12 13
13 1 2 1 1 13 14
14 1 2 1 1 14 15
15 1 2 1 1 15 16
16 1 2 1 1 16 17
17 1 2 1 1 17 18
18 1 2 1 1 18 19
19 1 2 1 1 19 20
20 1 2 1 1 20 21
21 1 2 1 1 21 22
22 1 2 1 1 22 23
23 1 2 1 1 23 24
24 1 2 1 1 24 25
25 1 2 1 1 25 26
26 1 2 1 1 26 27
27 1 2 1 1 27 28
28 1 2 1 1 28 29
29 1 2 1 1 29 30
30 1 2 1 1 30 31
31 1 2 1 1 31 32
32 1 2 1 1 32 33
33 1 2 1 1 33 34
34 1 2 1 1 34 35
35 1 2 1 1 35 36
36 1 2 1 1 36 37
37 1 2 1 1 37 38
38 1 2 1 1 38 39
39 1 2 1 1 39 40
40 1 2 1 1 40 41
41 1 2 1 1 41 42
42 1 2 1 1 42 43
43 1 2 1 1 43 44
44 1 2 1 1 44 45
45 1 2 1 1 45 46
46 1 2 1 1 46 47
47 1 2 1 1 47 48
48 1 2 1 1 48 49
49 1 2 1 1 49 50
50 1 2 1 1 50 51
51 1 2 1 1 51 52
52 1 2 1 1 52 53
53 1 2 1 1 53 54
54 1 2 1 1 54 55
55 1 2 1 1 55 56
56 1 2 1 1 56 57
57 1 2 1 1 57 58
58 1 2 1 1 58 59
59 1 2 1 1 59 60
60 1 2 1 1 60 61
61 1 2 1 1 61 62
62 1 2 1 1 62 63
63 1 2 1 1 63 64
64 1 2 1 1 64 65
65 1 2 1 1 65 66
66 1 2 1 1 66 67
67 1 2 1 1 67 68
68 1 2 1 1 68 69
69 1 2 1 1 69 70
70 1 2 1 1 70 71
71 1 2 1 1 71 72
72 1 2 1 1 72 73
73 1 2 1 1 73 74
74 1 2 1 1 74 75
75 1 2 1 1 75 76
76 1 2 1 1 76 77
77 1 2 1 1 77 78
78 1 2 1 1 78 79
79 1 2 1 1 79 80
80 1 2 1 1 80 81
81 1 2 1 1 81 82
82 1 2 1 1 82 83
83 1 2 1 1 83 84
84 1 2 1 1 84 85
85 1 2 1 1 85 86
86 1 2 1 1 86 87
87 1 2 1 1 87 88
88 1 2 1 1 88 89
89 1 2 1 1 89 90
90 1 2 1 1 90 91
91 1 2 1 1 91 92
92 1 2 1 1 92 93
93 1 2 1 1 93 94
94 1 2 1 1 94 95
95 1 2 1 1 95 96
96 1 2 1 1 96 97
97 1 2 1 1 97 98
98 1 2 1 1 98 99
99 1 2 1 1 99 100
100 1 2 1 1 100 101
101 1 2 1 1 101 102
102 1 2 1 1 102 103
103 1 2 1 1 103 104
104 1 2 1 1 104 105
105 1 2 1 1 105 106
106 1 2 1 1 106 107
107 1 2 1 1 107 108
108 1 2 1 1 108 109
109 1 2 1 1 109 110
110 1 2 1 1 110 111
111 1 2 1 1 111 112
112 1 2 1 1 112 113
113 1 2 1 1 113 114
114 1 2 1 1 114 115
115 1 2 1 1 115 116
116 1 2 1 1 116 117
117 1 2 1 1 117 118
118 1 2 1 1 118 119
119 1 2 1 1 119 120
120 1 2 1 1 120 121
121 1 2 1 1 121 122
122 1 2 1 1 122 123
123 1 2 1 1 123 124
124 1 2 1 1 124 125
125 1 2 1 1 125 126
126 1 2 1 1 126 127
127 1 2 1 1 127 128
128 1 2 1 1 128 129
129 15 2 2 1 1
130 15 2 3 1 129
$EndElements