$MeshFormat
2.2 0 8
$EndMeshFormat
$PhysicalNames
3
1 1 "cell"
0 2 "left"
0 3 "right"
$EndPhysicalNames
$Nodes
513
1 0.000000000000000E+000 0.0 0.0
2 1.308593750000000E-004 0.0 0.0
3 2.617187500000000E-004 0.0 0.0
4 3.925781250000000E-004 0.0 0.0
5 5.234375000000000E-004 0.0 0.0
6 6.542968750000000E-004 0.0 0.0
7 7.851562500000001E-004 0.0 0.0
8 9.160156250000001E-004 0.0 0.0
9 1.046875000000000E-003 0.0 0.0
10 1.177734375000000E-003 0.0 0.0
11 1.308593750000000E-003 0.0 0.0
12 1.439453125000000E-003 0.0 0.0
13 1.570312500000000E-003 0.0 0.0
14 1.701171875000000E-003 0.0 0.0
15 1.832031250000000E-003 0.0 0.0
16 1.962890625000000E-003 0.0 0.0
17 2.093750000000000E-003 0.0 0.0
18 2.224609375000000E-003 0.0 0.0
19 2.355468750000000E-003 0.0 0.0
20 2.486328125000000E-003 0.0 0.0
21 2.617187500000000E-003 0.0 0.0
22 2.748046875000000E-003 0.0 0.0
23 2.878906250000000E-003 0.0 0.0
24 3.009765625000000E-003 0.0 0.0
25 3.140625000000000E-003 0.0 0.0
26 3.271484375000000E-003 0.0 0.0
27 3.402343750000000E-003 0.0 0.0
28 3.533203125000000E-003 0.0 0.0
29 3.664062500000000E-003 0.0 0.0
30 3.794921875000000E-003 0.0 0.0
31 3.925781250000001E-003 0.0 0.0
32 4.056640625000000E-003 0.0 0.0
33 4.187500000000000E-003 0.0 0.0
34 4.318359375000001E-003 0.0 0.0
35 4.449218750000000E-003 0.0 0.0
36 4.580078125000000E-003 0.0 0.0
37 4.710937500000000E-003 0.0 0.0
38 4.841796875000000E-003 0.0 0.0
39 4.972656250000001E-003 0.0 0.0
40 5.103515625000000E-003 0.0 0.0
41 5.234375000000000E-003 0.0 0.0
42 5.365234375000001E-003 0.0 0.0
43 5.496093750000000E-003 0.0 0.0
44 5.626953125000000E-003 0.0 0.0
45 5.757812500000001E-003 0.0 0.0
46 5.888671875000000E-003 0.0 0.0
47 6.019531250000001E-003 0.0 0.0
48 6.150390625000000E-003 0.0 0.0
49 6.281250000000000E-003 0.0 0.0
50 6.412109375000001E-003 0.0 0.0
51 6.542968750000000E-003 0.0 0.0
52 6.673828125000001E-003 0.0 0.0
53 6.804687500000000E-003 0.0 0.0
54 6.935546875000000E-003 0.0 0.0
55 7.066406250000001E-003 0.0 0.0
56 7.197265625000000E-003 0.0 0.0
57 7.328125000000000E-003 0.0 0.0
58 7.458984375000001E-003 0.0 0.0
59 7.589843750000000E-003 0.0 0.0
60 7.720703125000001E-003 0.0 0.0
61 7.851562500000001E-003 0.0 0.0
62 7.982421875000001E-003 0.0 0.0
63 8.113281250000000E-003 0.0 0.0
64 8.244140625000000E-003 0.0 0.0
65 8.375000000000001E-003 0.0 0.0
66 8.505859375000001E-003 0.0 0.0
67 8.636718750000001E-003 0.0 0.0
68 8.767578125000000E-003 0.0 0.0
69 8.898437500000000E-003 0.0 0.0
70 9.029296875000000E-003 0.0 0.0
71 9.160156250000001E-003 0.0 0.0
72 9.291015625000001E-003 0.0 0.0
73 9.421875000000000E-003 0.0 0.0
74 9.552734375000000E-003 0.0 0.0
75 9.683593750000000E-003 0.0 0.0
76 9.814453125000001E-003 0.0 0.0
77 9.945312500000001E-003 0.0 0.0
78 1.007617187500000E-002 0.0 0.0
79 1.020703125000000E-002 0.0 0.0
80 1.033789062500000E-002 0.0 0.0
81 1.046875000000000E-002 0.0 0.0
82 1.059960937500000E-002 0.0 0.0
83 1.073046875000000E-002 0.0 0.0
84 1.086132812500000E-002 0.0 0.0
85 1.099218750000000E-002 0.0 0.0
86 1.112304687500000E-002 0.0 0.0
87 1.125390625000000E-002 0.0 0.0
88 1.138476562500000E-002 0.0 0.0
89 1.151562500000000E-002 0.0 0.0
90 1.164648437500000E-002 0.0 0.0
91 1.177734375000000E-002 0.0 0.0
92 1.190820312500000E-002 0.0 0.0
93 1.203906250000000E-002 0.0 0.0
94 1.216992187500000E-002 0.0 0.0
95 1.230078125000000E-002 0.0 0.0
96 1.243164062500000E-002 0.0 0.0
97 1.256250000000000E-002 0.0 0.0
98 1.269335937500000E-002 0.0 0.0
99 1.282421875000000E-002 0.0 0.0
100 1.295507812500000E-002 0.0 0.0
101 1.308593750000000E-002 0.0 0.0
102 1.321679687500000E-002 0.0 0.0
103 1.334765625000000E-002 0.0 0.0
104 1.347851562500000E-002 0.0 0.0
105 1.360937500000000E-002 0.0 0.0
106 1.374023437500000E-002 0.0 0.0
107 1.387109375000000E-002 0.0 0.0
108 1.400195312500000E-002 0.0 0.0
109 1.413281250000000E-002 0.0 0.0
110 1.426367187500000E-002 0.0 0.0
111 1.439453125000000E-002 0.0 0.0
112 1.452539062500000E-002 0.0 0.0
113 1.465625000000000E-002 0.0 0.0
114 1.478710937500000E-002 0.0 0.0
115 1.491796875000000E-002 0.0 0.0
116 1.504882812500000E-002 0.0 0.0
117 1.517968750000000E-002 0.0 0.0
118 1.531054687500000E-002 0.0 0.0
119 1.544140625000000E-002 0.0 0.0
120 1.557226562500000E-002 0.0 0.0
121 1.570312500000000E-002 0.0 0.0
122 1.583398437500000E-002 0.0 0.0
123 1.596484375000000E-002 0.0 0.0
124 1.609570312500000E-002 0.0 0.0
125 1.622656250000000E-002 0.0 0.0
126 1.635742187500000E-002 0.0 0.0
127 1.648828125000000E-002 0.0 0.0
128 1.661914062500000E-002 0.0 0.0
129 1.675000000000000E-002 0.0 0.0
130 1.688085937500000E-002 0.0 0.0
131 1.701171875000000E-002 0.0 0.0
132 1.714257812500000E-002 0.0 0.0
133 1.727343750000000E-002 0.0 0.0
134 1.740429687500000E-002 0.0 0.0
135 1.753515625000000E-002 0.0 0.0
136 1.766601562500000E-002 0.0 0.0
137 1.779687500000000E-002 0.0 0.0
138 1.792773437500000E-002 0.0 0.0
139 1.805859375000000E-002 0.0 0.0
140 1.818945312500000E-002 0.0 0.0
141 1.832031250000000E-002 0.0 0.0
142 1.845117187500000E-002 0.0 0.0
143 1.858203125000000E-002 0.0 0.0
144 1.871289062500000E-002 0.0 0.0
145 1.884375000000000E-002 0.0 0.0
146 1.897460937500000E-002 0.0 0.0
147 1.910546875000000E-002 0.0 0.0
148 1.923632812500000E-002 0.0 0.0
149 1.936718750000000E-002 0.0 0.0
150 1.949804687500000E-002 0.0 0.0
151 1.962890625000000E-002 0.0 0.0
152 1.975976562500000E-002 0.0 0.0
153 1.989062500000000E-002 0.0 0.0
154 2.002148437500000E-002 0.0 0.0
155 2.015234375000000E-002 0.0 0.0
156 2.028320312500000E-002 0.0 0.0
157 2.041406250000000E-002 0.0 0.0
158 2.054492187500000E-002 0.0 0.0
159 2.067578125000000E-002 0.0 0.0
160 2.080664062500000E-002 0.0 0.0
161 2.093750000000000E-002 0.0 0.0
162 2.106835937500000E-002 0.0 0.0
163 2.119921875000000E-002 0.0 0.0
164 2.133007812500000E-002 0.0 0.0
165 2.146093750000000E-002 0.0 0.0
166 2.159179687500000E-002 0.0 0.0
167 2.172265625000000E-002 0.0 0.0
168 2.185351562500000E-002 0.0 0.0
169 2.198437500000000E-002 0.0 0.0
170 2.211523437500000E-002 0.0 0.0
171 2.224609375000000E-002 0.0 0.0
172 2.237695312500000E-002 0.0 0.0
173 2.250781250000000E-002 0.0 0.0
174 2.263867187500000E-002 0.0 0.0
175 2.276953125000000E-002 0.0 0.0
176 2.290039062500000E-002 0.0 0.0
177 2.303125000000000E-002 0.0 0.0
178 2.316210937500000E-002 0.0 0.0
179 2.329296875000000E-002 0.0 0.0
180 2.342382812500000E-002 0.0 0.0
181 2.355468750000000E-002 0.0 0.0
182 2.368554687500000E-002 0.0 0.0
183 2.381640625000000E-002 0.0 0.0
184 2.394726562500000E-002 0.0 0.0
185 2.407812500000000E-002 0.0 0.0
186 2.420898437500000E-002 0.0 0.0
187 2.433984375000000E-002 0.0 0.0
188 2.447070312500000E-002 0.0 0.0
189 2.460156250000000E-002 0.0 0.0
190 2.473242187500000E-002 0.0 0.0
191 2.486328125000000E-002 0.0 0.0
192 2.499414062500000E-002 0.0 0.0
193 2.512500000000000E-002 0.0 0.0
194 2.525585937500000E-002 0.0 0.0
195 2.538671875000000E-002 0.0 0.0
196 2.551757812500000E-002 0.0 0.0
197 2.564843750000000E-002 0.0 0.0
198 2.577929687500000E-002 0.0 0.0
199 2.591015625000000E-002 0.0 0.0
200 2.604101562500000E-002 0.0 0.0
201 2.617187500000000E-002 0.0 0.0
202 2.630273437500000E-002 0.0 0.0
203 2.643359375000000E-002 0.0 0.0
204 2.656445312500000E-002 0.0 0.0
205 2.669531250000000E-002 0.0 0.0
206 2.682617187500000E-002 0.0 0.0
207 2.695703125000000E-002 0.0 0.0
208 2.708789062500000E-002 0.0 0.0
209 2.721875000000000E-002 0.0 0.0
210 2.734960937500000E-002 0.0 0.0
211 2.748046875000000E-002 0.0 0.0
212 2.761132812500000E-002 0.0 0.0
213 2.774218750000000E-002 0.0 0.0
214 2.787304687500000E-002 0.0 0.0
215 2.800390625000000E-002 0.0 0.0
216 2.813476562500000E-002 0.0 0.0
217 2.826562500000000E-002 0.0 0.0
218 2.839648437500000E-002 0.0 0.0
219 2.852734375000000E-002 0.0 0.0
220 2.865820312500000E-002 0.0 0.0
221 2.878906250000000E-002 0.0 0.0
222 2.891992187500000E-002 0.0 0.0
223 2.905078125000000E-002 0.0 0.0
224 2.918164062500000E-002 0.0 0.0
225 2.931250000000000E-002 0.0 0.0
226 2.944335937500000E-002 0.0 0.0
227 2.957421875000000E-002 0.0 0.0
228 2.970507812500000E-002 0.0 0.0
229 2.983593750000000E-002 0.0 0.0
230 2.996679687500000E-002 0.0 0.0
231 3.009765625000000E-002 0.0 0.0
232 3.022851562500000E-002 0.0 0.0
233 3.035937500000000E-002 0.0 0.0
234 3.049023437500000E-002 0.0 0.0
235 3.062109375000000E-002 0.0 0.0
236 3.075195312500000E-002 0.0 0.0
237 3.088281250000000E-002 0.0 0.0
238 3.101367187500000E-002 0.0 0.0
239 3.114453125000000E-002 0.0 0.0
240 3.127539062500000E-002 0.0 0.0
241 3.140625000000000E-002 0.0 0.0
242 3.153710937500000E-002 0.0 0.0
243 3.166796875000000E-002 0.0 0.0
244 3.179882812500001E-002 0.0 0.0
245 3.192968750000001E-002 0.0 0.0
246 3.206054687500001E-002 0.0 0.0
247 3.219140625000000E-002 0.0 0.0
248 3.232226562500000E-002 0.0 0.0
249 3.245312500000000E-002 0.0 0.0
250 3.258398437500000E-002 0.0 0.0
251 3.271484375000000E-002 0.0 0.0
252 3.284570312500000E-002 0.0 0.0
253 3.297656250000000E-002 0.0 0.0
254 3.310742187500000E-002 0.0 0.0
255 3.323828125000000E-002 0.0 0.0
256 3.336914062500000E-002 0.0 0.0
257 3.350000000000000E-002 0.0 0.0
258 3.363085937500000E-002 0.0 0.0
259 3.376171875000000E-002 0.0 0.0
260 3.389257812500000E-002 0.0 0.0
261 3.402343750000000E-002 0.0 0.0
262 3.415429687500000E-002 0.0 0.0
263 3.428515625000000E-002 0.0 0.0
264 3.441601562500000E-002 0.0 0.0
265 3.454687500000001E-002 0.0 0.0
266 3.467773437500001E-002 0.0 0.0
267 3.480859375000001E-002 0.0 0.0
268 3.493945312500000E-002 0.0 0.0
269 3.507031250000000E-002 0.0 0.0
270 3.520117187500000E-002 0.0 0.0
271 3.533203125000000E-002 0.0 0.0
272 3.546289062500000E-002 0.0 0.0
273 3.559375000000000E-002 0.0 0.0
274 3.572460937500000E-002 0.0 0.0
275 3.585546875000000E-002 0.0 0.0
276 3.598632812500000E-002 0.0 0.0
277 3.611718750000000E-002 0.0 0.0
278 3.624804687500000E-002 0.0 0.0
279 3.637890625000000E-002 0.0 0.0
280 3.650976562500000E-002 0.0 0.0
281 3.664062500000000E-002 0.0 0.0
282 3.677148437500000E-002 0.0 0.0
283 3.690234375000000E-002 0.0 0.0
284 3.703320312500000E-002 0.0 0.0
285 3.716406250000000E-002 0.0 0.0
286 3.729492187500001E-002 0.0 0.0
287 3.742578125000001E-002 0.0 0.0
288 3.755664062500001E-002 0.0 0.0
289 3.768750000000000E-002 0.0 0.0
290 3.781835937500000E-002 0.0 0.0
291 3.794921875000000E-002 0.0 0.0
292 3.808007812500000E-002 0.0 0.0
293 3.821093750000000E-002 0.0 0.0
294 3.834179687500000E-002 0.0 0.0
295 3.847265625000000E-002 0.0 0.0
296 3.860351562500000E-002 0.0 0.0
297 3.873437500000000E-002 0.0 0.0
298 3.886523437500000E-002 0.0 0.0
299 3.899609375000000E-002 0.0 0.0
300 3.912695312500000E-002 0.0 0.0
301 3.925781250000000E-002 0.0 0.0
302 3.938867187500000E-002 0.0 0.0
303 3.951953125000000E-002 0.0 0.0
304 3.965039062500000E-002 0.0 0.0
305 3.978125000000000E-002 0.0 0.0
306 3.991210937500000E-002 0.0 0.0
307 4.004296875000001E-002 0.0 0.0
308 4.017382812500001E-002 0.0 0.0
309 4.030468750000001E-002 0.0 0.0
310 4.043554687500001E-002 0.0 0.0
311 4.056640625000000E-002 0.0 0.0
312 4.069726562500000E-002 0.0 0.0
313 4.082812500000000E-002 0.0 0.0
314 4.095898437500000E-002 0.0 0.0
315 4.108984375000000E-002 0.0 0.0
316 4.122070312500000E-002 0.0 0.0
317 4.135156250000000E-002 0.0 0.0
318 4.148242187500000E-002 0.0 0.0
319 4.161328125000000E-002 0.0 0.0
320 4.174414062500000E-002 0.0 0.0
321 4.187500000000000E-002 0.0 0.0
322 4.200585937500000E-002 0.0 0.0
323 4.213671875000000E-002 0.0 0.0
324 4.226757812500000E-002 0.0 0.0
325 4.239843750000000E-002 0.0 0.0
326 4.252929687500000E-002 0.0 0.0
327 4.266015625000000E-002 0.0 0.0
328 4.279101562500001E-002 0.0 0.0
329 4.292187500000001E-002 0.0 0.0
330 4.305273437500001E-002 0.0 0.0
331 4.318359375000001E-002 0.0 0.0
332 4.331445312500000E-002 0.0 0.0
333 4.344531250000000E-002 0.0 0.0
334 4.357617187500000E-002 0.0 0.0
335 4.370703125000000E-002 0.0 0.0
336 4.383789062500000E-002 0.0 0.0
337 4.396875000000000E-002 0.0 0.0
338 4.409960937500000E-002 0.0 0.0
339 4.423046875000000E-002 0.0 0.0
340 4.436132812500000E-002 0.0 0.0
341 4.449218750000000E-002 0.0 0.0
342 4.462304687500000E-002 0.0 0.0
343 4.475390625000000E-002 0.0 0.0
344 4.488476562500000E-002 0.0 0.0
345 4.501562500000000E-002 0.0 0.0
346 4.514648437500000E-002 0.0 0.0
347 4.527734375000000E-002 0.0 0.0
348 4.540820312500001E-002 0.0 0.0
349 4.553906250000001E-002 0.0 0.0
350 4.566992187500001E-002 0.0 0.0
351 4.580078125000001E-002 0.0 0.0
352 4.593164062500001E-002 0.0 0.0
353 4.606250000000001E-002 0.0 0.0
354 4.619335937500000E-002 0.0 0.0
355 4.632421875000000E-002 0.0 0.0
356 4.645507812500000E-002 0.0 0.0
357 4.658593750000000E-002 0.0 0.0
358 4.671679687500000E-002 0.0 0.0
359 4.684765625000000E-002 0.0 0.0
360 4.697851562500000E-002 0.0 0.0
361 4.710937500000000E-002 0.0 0.0
362 4.724023437500000E-002 0.0 0.0
363 4.737109375000000E-002 0.0 0.0
364 4.750195312500000E-002 0.0 0.0
365 4.763281250000000E-002 0.0 0.0
366 4.776367187500000E-002 0.0 0.0
367 4.789453125000000E-002 0.0 0.0
368 4.802539062500000E-002 0.0 0.0
369 4.815625000000001E-002 0.0 0.0
370 4.828710937500001E-002 0.0 0.0
371 4.841796875000001E-002 0.0 0.0
372 4.854882812500001E-002 0.0 0.0
373 4.867968750000001E-002 0.0 0.0
374 4.881054687500001E-002 0.0 0.0
375 4.894140625000000E-002 0.0 0.0
376 4.907226562500000E-002 0.0 0.0
377 4.920312500000000E-002 0.0 0.0
378 4.933398437500000E-002 0.0 0.0
379 4.946484375000000E-002 0.0 0.0
380 4.959570312500000E-002 0.0 0.0
381 4.972656250000000E-002 0.0 0.0
382 4.985742187500000E-002 0.0 0.0
383 4.998828125000000E-002 0.0 0.0
384 5.011914062500000E-002 0.0 0.0
385 5.025000000000000E-002 0.0 0.0
386 5.038085937500000E-002 0.0 0.0
387 5.051171875000000E-002 0.0 0.0
388 5.064257812500000E-002 0.0 0.0
389 5.077343750000000E-002 0.0 0.0
390 5.090429687500001E-002 0.0 0.0
391 5.103515625000001E-002 0.0 0.0
392 5.116601562500001E-002 0.0 0.0
393 5.129687500000001E-002 0.0 0.0
394 5.142773437500001E-002 0.0 0.0
395 5.155859375000001E-002 0.0 0.0
396 5.168945312500000E-002 0.0 0.0
397 5.182031250000000E-002 0.0 0.0
398 5.195117187500000E-002 0.0 0.0
399 5.208203125000000E-002 0.0 0.0
400 5.221289062500000E-002 0.0 0.0
401 5.234375000000000E-002 0.0 0.0
402 5.247460937500000E-002 0.0 0.0
403 5.260546875000000E-002 0.0 0.0
404 5.273632812500000E-002 0.0 0.0
405 5.286718750000000E-002 0.0 0.0
406 5.299804687500000E-002 0.0 0.0
407 5.312890625000000E-002 0.0 0.0
408 5.325976562500000E-002 0.0 0.0
409 5.339062500000000E-002 0.0 0.0
410 5.352148437500000E-002 0.0 0.0
411 5.365234375000001E-002 0.0 0.0
412 5.378320312500001E-002 0.0 0.0
413 5.391406250000001E-002 0.0 0.0
414 5.404492187500001E-002 0.0 0.0
415 5.417578125000001E-002 0.0 0.0
416 5.430664062500001E-002 0.0 0.0
417 5.443750000000000E-002 0.0 0.0
418 5.456835937500000E-002 0.0 0.0
419 5.469921875000000E-002 0.0 0.0
420 5.483007812500000E-002 0.0 0.0
421 5.496093750000000E-002 0.0 0.0
422 5.509179687500000E-002 0.0 0.0
423 5.522265625000000E-002 0.0 0.0
424 5.535351562500000E-002 0.0 0.0
425 5.548437500000000E-002 0.0 0.0
426 5.561523437500000E-002 0.0 0.0
427 5.574609375000000E-002 0.0 0.0
428 5.587695312500000E-002 0.0 0.0
429 5.600781250000000E-002 0.0 0.0
430 5.613867187500000E-002 0.0 0.0
431 5.626953125000000E-002 0.0 0.0
432 5.640039062500001E-002 0.0 0.0
433 5.653125000000001E-002 0.0 0.0
434 5.666210937500001E-002 0.0 0.0
435 5.679296875000001E-002 0.0 0.0
436 5.692382812500001E-002 0.0 0.0
437 5.705468750000001E-002 0.0 0.0
438 5.718554687500001E-002 0.0 0.0
439 5.731640625000000E-002 0.0 0.0
440 5.744726562500000E-002 0.0 0.0
441 5.757812500000000E-002 0.0 0.0
442 5.770898437500000E-002 0.0 0.0
443 5.783984375000000E-002 0.0 0.0
444 5.797070312500000E-002 0.0 0.0
445 5.810156250000000E-002 0.0 0.0
446 5.823242187500000E-002 0.0 0.0
447 5.836328125000000E-002 0.0 0.0
448 5.849414062500000E-002 0.0 0.0
449 5.862500000000000E-002 0.0 0.0
450 5.875585937500000E-002 0.0 0.0
451 5.888671875000000E-002 0.0 0.0
452 5.901757812500000E-002 0.0 0.0
453 5.914843750000001E-002 0.0 0.0
454 5.927929687500001E-002 0.0 0.0
455 5.941015625000001E-002 0.0 0.0
456 5.954101562500001E-002 0.0 0.0
457 5.967187500000001E-002 0.0 0.0
458 5.980273437500001E-002 0.0 0.0
459 5.993359375000001E-002 0.0 0.0
460 6.006445312500000E-002 0.0 0.0
461 6.019531250000000E-002 0.0 0.0
462 6.032617187500000E-002 0.0 0.0
463 6.045703125000000E-002 0.0 0.0
464 6.058789062500000E-002 0.0 0.0
465 6.071875000000000E-002 0.0 0.0
466 6.084960937500000E-002 0.0 0.0
467 6.098046875000000E-002 0.0 0.0
468 6.111132812500000E-002 0.0 0.0
469 6.124218750000000E-002 0.0 0.0
470 6.137304687500000E-002 0.0 0.0
471 6.150390625000000E-002 0.0 0.0
472 6.163476562500000E-002 0.0 0.0
473 6.176562500000001E-002 0.0 0.0
474 6.189648437500001E-002 0.0 0.0
475 6.202734375000001E-002 0.0 0.0
476 6.215820312500001E-002 0.0 0.0
477 6.228906250000001E-002 0.0 0.0
478 6.241992187500001E-002 0.0 0.0
479 6.255078125000001E-002 0.0 0.0
480 6.268164062500001E-002 0.0 0.0
481 6.281250000000001E-002 0.0 0.0
482 6.294335937500001E-002 0.0 0.0
483 6.307421875000001E-002 0.0 0.0
484 6.320507812500001E-002 0.0 0.0
485 6.333593750000001E-002 0.0 0.0
486 6.346679687500001E-002 0.0 0.0
487 6.359765625000001E-002 0.0 0.0
488 6.372851562500001E-002 0.0 0.0
489 6.385937500000001E-002 0.0 0.0
490 6.399023437500001E-002 0.0 0.0
491 6.412109375000001E-002 0.0 0.0
492 6.425195312500000E-002 0.0 0.0
493 6.438281250000000E-002 0.0 0.0
494 6.451367187500000E-002 0.0 0.0
495 6.464453125000000E-002 0.0 0.0
496 6.477539062500000E-002 0.0 0.0
497 6.490625000000000E-002 0.0 0.0
498 6.503710937500000E-002 0.0 0.0
499 6.516796875000000E-002 0.0 0.0
500 6.529882812500000E-002 0.0 0.0
501 6.542968750000000E-002 0.0 0.0
502 6.556054687500000E-002 0.0 0.0
503 6.569140625000000E-002 0.0 0.0
504 6.582226562500000E-002 0.0 0.0
505 6.595312500000000E-002 0.0 0.0
506 6.608398437500000E-002 0.0 0.0
507 6.621484375000000E-002 0.0 0.0
508 6.634570312500000E-002 0.0 0.0
509 6.647656250000000E-002 0.0 0.0
510 6.660742187500000E-002 0.0 0.0
511 6.673828125000000E-002 0.0 0.0
512 6.686914062500000E-002 0.0 0.0
513 6.700000000000000E-002 0.0 0.0
$EndNodes
$Elements
514
1 1 2 1 1 1 2
2 1 2 1 1 2 3
3 1 2 1 1 3 4
4 1 2 1 1 4 5
5 1 2 1 1 5 6
6 1 2 1 1 6 7
7 1 2 1 1 7 8
8 1 2 1 1 8 9
9 1 2 1 1 9 10
10 1 2 1 1 10 11
11 1 2 1 1 11 12
12 1 2 1 1 12 13
13 1 2 1 1 13 14
14 1 2 1 1 14 15
15 1 2 1 1 15 16
16 1 2 1 1 16 17
17 1 2 1 1 17 18
18 1 2 1 1 18 19
19 1 2 1 1 19 20
20 1 2 1 1 20 21
21 1 2 1 1 21 22
22 1 2 1 1 22 23
23 1 2 1 1 23 24
24 1 2 1 1 24 25
25 1 2 1 1 25 26
26 1 2 1 1 26 27
27 1 2 1 1 27 28
28 1 2 1 1 28 29
29 1 2 1 1 29 30
30 1 2 1 1 30 31
31 1 2 1 1 31 32
32 1 2 1 1 32 33
33 1 2 1 1 33 34
34 1 2 1 1 34 35
35 1 2 1 1 35 36
36 1 2 1 1 36 37
37 1 2 1 1 37 38
38 1 2 1 1 38 39
39 1 2 1 1 39 40
40 1 2 1 1 40 41
41 1 2 1 1 41 42
42 1 2 1 1 42 43
43 1 2 1 1 43 44
44 1 2 1 1 44 45
45 1 2 1 1 45 46
46 1 2 1 1 46 47
47 1 2 1 1 47 48
48 1 2 1 1 48 49
49 1 2 1 1 49 50
50 1 2 1 1 50 51
51 1 2 1 1 51 52
52 1 2 1 1 52 53
53 1 2 1 1 53 54
54 1 2 1 1 54 55
55 1 2 1 1 55 56
56 1 2 1 1 56 57
57 1 2 1 1 57 58
58 1 2 1 1 58 59
59 1 2 1 1 59 60
60 1 2 1 1 60 61
61 1 2 1 1 61 62
62 1 2 1 1 62 63
63 1 2 1 1 63 64
64 1 2 1 1 64 65
65 1 2 1 1 65 66
66 1 2 1 1 66 67
67 1 2 1 1 67 68
68 1 2 1 1 68 69
69 1 2 1 1 69 70
70 1 2 1 1 70 71
71 1 2 1 1 71 72
72 1 2 1 1 72 73
73 1 2 1 1 73 74
74 1 2 1 1 74 75
75 1 2 1 1 75 76
76 1 2 1 1 76 77
77 1 2 1 1 77 78
78 1 2 1 1 78 79
79 1 2 1 1 79 80
80 1 2 1 1 80 81
81 1 2 1 1 81 82
82 1 2 1 1 82 83
83 1 2 1 1 83 84
84 1 2 1 1 84 85
85 1 2 1 1 85 86
86 1 2 1 1 86 87
87 1 2 1 1 87 88
88 1 2 1 1 88 89
89 1 2 1 1 89 90
90 1 2 1 1 90 91
91 1 2 1 1 91 92
92 1 2 1 1 92 93
93 1 2 1 1 93 94
94 1 2 1 1 94 95
95 1 2 1 1 95 96
96 1 2 1 1 96 97
97 1 2 1 1 97 98
98 1 2 1 1 98 99
99 1 2 1 1 99 100
100 1 2 1 1 100 101
101 1 2 1 1 101 102
102 1 2 1 1 102 103
103 1 2 1 1 103 104
104 1 2 1 1 104 105
105 1 2 1 1 105 106
106 1 2 1 1 106 107
107 1 2 1 1 107 108
108 1 2 1 1 108 109
109 1 2 1 1 109 110
110 1 2 1 1 110 111
111 1 2 1 1 111 112
112 1 2 1 1 112 113
113 1 2 1 1 113 114
114 1 2 1 1 114 115
115 1 2 1 1 115 116
116 1 2 1 1 116 117
117 1 2 1 1 117 118
118 1 2 1 1 118 119
119 1 2 1 1 119 120
120 1 2 1 1 120 121
121 1 2 1 1 121 122
122 1 2 1 1 122 123
123 1 2 1 1 123 124
124 1 2 1 1 124 125
125 1 2 1 1 125 126
126 1 2 1 1 126 127
127 1 2 1 1 127 128
128 1 2 1 1 128 129
129 1 2 1 1 129 130
130 1 2 1 1 130 131
131 1 2 1 1 131 132
132 1 2 1 1 132 133
133 1 2 1 1 133 134
134 1 2 1 1 134 135
135 1 2 1 1 135 136
136 1 2 1 1 136 137
137 1 2 1 1 137 138
138 1 2 1 1 138 139
139 1 2 1 1 139 140
140 1 2 1 1 140 141
141 1 2 1 1 141 142
142 1 2 1 1 142 143
143 1 2 1 1 143 144
144 1 2 1 1 144 145
145 1 2 1 1 145 146
146 1 2 1 1 146 147
147 1 2 1 1 147 148
148 1 2 1 1 148 149
149 1 2 1 1 149 150
150 1 2 1 1 150 151
151 1 2 1 1 151 152
152 1 2 1 1 152 153
153 1 2 1 1 153 154
154 1 2 1 1 154 155
155 1 2 1 1 155 156
156 1 2 1 1 156 157
157 1 2 1 1 157 158
158 1 2 1 1 158 159
159 1 2 1 1 159 160
160 1 2 1 1 160 161
161 1 2 1 1 161 162
162 1 2 1 1 162 163
163 1 2 1 1 163 164
164 1 2 1 1 164 165
165 1 2 1 1 165 166
166 1 2 1 1 166 167
167 1 2 1 1 167 168
168 1 2 1 1 168 169
169 1 2 1 1 169 170
170 1 2 1 1 170 171
171 1 2 1 1 171 172
172 1 2 1 1 172 173
173 1 2 1 1 173 174
174 1 2 1 1 174 175
175 1 2 1 1 175 176
176 1 2 1 1 176 177
177 1 2 1 1 177 178
178 1 2 1 1 178 179
179 1 2 1 1 179 180
180 1 2 1 1 180 181
181 1 2 1 1 181 182
182 1 2 1 1 182 183
183 1 2 1 1 183 184
184 1 2 1 1 184 185
185 1 2 1 1 185 186
186 1 2 1 1 186 187
187 1 2 1 1 187 188
188 1 2 1 1 188 189
189 1 2 1 1 189 190
190 1 2 1 1 190 191
191 1 2 1 1 191 192
192 1 2 1 1 192 193
193 1 2 1 1 193 194
194 1 2 1 1 194 195
195 1 2 1 1 195 196
196 1 2 1 1 196 197
197 1 2 1 1 197 198
198 1 2 1 1 198 199
199 1 2 1 1 199 200
200 1 2 1 1 200 201
201 1 2 1 1 201 202
202 1 2 1 1 202 203
203 1 2 1 1 203 204
204 1 2 1 1 204 205
205 1 2 1 1 205 206
206 1 2 1 1 206 207
207 1 2 1 1 207 208
208 1 2 1 1 208 209
209 1 2 1 1 209 210
210 1 2 1 1 210 211
211 1 2 1 1 211 212
212 1 2 1 1 212 213
213 1 2 1 1 213 214
214 1 2 1 1 214 215
215 1 2 1 1 215 216
216 1 2 1 1 216 217
217 1 2 1 1 217 218
218 1 2 1 1 218 219
219 1 2 1 1 219 220
220 1 2 1 1 220 221
221 1 2 1 1 221 222
222 1 2 1 1 222 223
223 1 2 1 1 223 224
224 1 2 1 1 224 225
225 1 2 1 1 225 226
226 1 2 1 1 226 227
227 1 2 1 1 227 228
228 1 2 1 1 228 229
229 1 2 1 1 229 230
230 1 2 1 1 230 231
231 1 2 1 1 231 232
232 1 2 1 1 232 233
233 1 2 1 1 233 234
234 1 2 1 1 234 235
235 1 2 1 1 235 236
236 1 2 1 1 236 237
237 1 2 1 1 237 238
238 1 2 1 1 238 239
239 1 2 1 1 239 240
240 1 2 1 1 240 241
241 1 2 1 1 241 242
242 1 2 1 1 242 243
243 1 2 1 1 243 244
244 1 2 1 1 244 245
245 1 2 1 1 245 246
246 1 2 1 1 246 247
247 1 2 1 1 247 248
248 1 2 1 1 248 249
249 1 2 1 1 249 250
250 1 2 1 1 250 251
251 1 2 1 1 251 252
252 1 2 1 1 252 253
253 1 2 1 1 253 254
254 1 2 1 1 254 255
255 1 2 1 1 255 256
256 1 2 1 1 256 257
257 1 2 1 1 257 258
258 1 2 1 1 258 259
259 1 2 1 1 259 260
260 1 2 1 1 260 261
261 1 2 1 1 261 262
262 1 2 1 1 262 263
263 1 2 1 1 263 264
264 1 2 1 1 264 265
265 1 2 1 1 265 266
266 1 2 1 1 266 267
267 1 2 1 1 267 268
268 1 2 1 1 268 269
269 1 2 1 1 269 270
270 1 2 1 1 270 271
271 1 2 1 1 271 272
272 1 2 1 1 272 273
273 1 2 1 1 273 274
274 1 2 1 1 274 275
275 1 2 1 1 275 276
276 1 2 1 1 276 277
277 1 2 1 1 277 278
278 1 2 1 1 278 279
279 1 2 1 1 279 280
280 1 2 1 1 280 281
281 1 2 1 1 281 282
282 1 2 1 1 282 283
283 1 2 1 1 283 284
284 1 2 1 1 284 285
285 1 2 1 1 285 286
286 1 2 1 1 286 287
287 1 2 1 1 287 288
288 1 2 1 1 288 289
289 1 2 1 1 289 290
290 1 2 1 1 290 291
291 1 2 1 1 291 292
292 1 2 1 1 292 293
293 1 2 1 1 293 294
294 1 2 1 1 294 295
295 1 2 1 1 295 296
296 1 2 1 1 296 297
297 1 2 1 1 297 298
298 1 2 1 1 298 299
299 1 2 1 1 299 300
300 1 2 1 1 300 301
301 1 2 1 1 301 302
302 1 2 1 1 302 303
303 1 2 1 1 303 304
304 1 2 1 1 304 305
305 1 2 1 1 305 306
306 1 2 1 1 306 307
307 1 2 1 1 307 308
308 1 2 1 1 308 309
309 1 2 1 1 309 310
310 1 2 1 1 310 311
311 1 2 1 1 311 312
312 1 2 1 1 312 313
313 1 2 1 1 313 314
314 1 2 1 1 314 315
315 1 2 1 1 315 316
316 1 2 1 1 316 317
317 1 2 1 1 317 318
318 1 2 1 1 318 319
319 1 2 1 1 319 320
320 1 2 1 1 320 321
321 1 2 1 1 321 322
322 1 2 1 1 322 323
323 1 2 1 1 323 324
324 1 2 1 1 324 325
325 1 2 1 1 325 326
326 1 2 1 1 326 327
327 1 2 1 1 327 328
328 1 2 1 1 328 329
329 1 2 1 1 329 330
330 1 2 1 1 330 331
331 1 2 1 1 331 332
332 1 2 1 1 332 333
333 1 2 1 1 333 334
334 1 2 1 1 334 335
335 1 2 1 1 335 336
336 1 2 1 1 336 337
337 1 2 1 1 337 338
338 1 2 1 1 338 339
339 1 2 1 1 339 340
340 1 2 1 1 340 341
341 1 2 1 1 341 342
342 1 2 1 1 342 343
343 1 2 1 1 343 344
344 1 2 1 1 344 345
345 1 2 1 1 345 346
346 1 2 1 1 346 347
347 1 2 1 1 347 348
348 1 2 1 1 348 349
349 1 2 1 1 349 350
350 1 2 1 1 350 351
351 1 2 1 1 351 352
352 1 2 1 1 352 353
353 1 2 1 1 353 354
354 1 2 1 1 354 355
355 1 2 1 1 355 356
356 1 2 1 1 356 357
357 1 2 1 1 357 358
358 1 2 1 1 358 359
359 1 2 1 1 359 360
360 1 2 1 1 360 361
361 1 2 1 1 361 362
362 1 2 1 1 362 363
363 1 2 1 1 363 364
364 1 2 1 1 364 365
365 1 2 1 1 365 366
366 1 2 1 1 366 367
367 1 2 1 1 367 368
368 1 2 1 1 368 369
369 1 2 1 1 369 370
370 1 2 1 1 370 371
371 1 2 1 1 371 372
372 1 2 1 1 372 373
373 1 2 1 1 373 374
374 1 2 1 1 374 375
375 1 2 1 1 375 376
376 1 2 1 1 376 377
377 1 2 1 1 377 378
378 1 2 1 1 378 379
379 1 2 1 1 379 380
380 1 2 1 1 380 381
381 1 2 1 1 381 382
382 1 2 1 1 382 383
383 1 2 1 1 383 384
384 1 2 1 1 384 385
385 1 2 1 1 385 386
386 1 2 1 1 386 387
387 1 2 1 1 387 388
388 1 2 1 1 388 389
389 1 2 1 1 389 390
390 1 2 1 1 390 391
391 1 2 1 1 391 392
392 1 2 1 1 392 393
393 1 2 1 1 393 394
394 1 2 1 1 394 395
395 1 2 1 1 395 396
396 1 2 1 1 396 397
397 1 2 1 1 397 398
398 1 2 1 1 398 399
399 1 2 1 1 399 400
400 1 2 1 1 400 401
401 1 2 1 1 401 402
402 1 2 1 1 402 403
403 1 2 1 1 403 404
404 1 2 1 1 404 405
405 1 2 1 1 405 406
406 1 2 1 1 406 407
407 1 2 1 1 407 408
408 1 2 1 1 408 409
409 1 2 1 1 409 410
410 1 2 1 1 410 411
411 1 2 1 1 411 412
412 1 2 1 1 412 413
413 1 2 1 1 413 414
414 1 2 1 1 414 415
415 1 2 1 1 415 416
416 1 2 1 1 416 417
417 1 2 1 1 417 418
418 1 2 1 1 418 419
419 1 2 1 1 419 420
420 1 2 1 1 420 421
421 1 2 1 1 421 422
422 1 2 1 1 422 423
423 1 2 1 1 423 424
424 1 2 1 1 424 425
425 1 2 1 1 425 426
426 1 2 1 1 426 427
427 1 2 1 1 427 428
428 1 2 1 1 428 429
429 1 2 1 1 429 430
430 1 2 1 1 430 431
431 1 2 1 1 431 432
432 1 2 1 1 432 433
433 1 2 1 1 433 434
434 1 2 1 1 434 435
435 1 2 1 1 435 436
436 1 2 1 1 436 437
437 1 2 1 1 437 438
438 1 2 1 1 438 439
439 1 2 1 1 439 440
440 1 2 1 1 440 441
441 1 2 1 1 441 442
442 1 2 1 1 442 443
443 1 2 1 1 443 444
444 1 2 1 1 444 445
445 1 2 1 1 445 446
446 1 2 1 1 446 447
447 1 2 1 1 447 448
448 1 2 1 1 448 449
449 1 2 1 1 449 450
450 1 2 1 1 450 451
451 1 2 1 1 451 452
452 1 2 1 1 452 453
453 1 2 1 1 453 454
454 1 2 1 1 454 455
455 1 2 1 1 455 456
456 1 2 1 1 456 457
457 1 2 1 1 457 458
458 1 2 1 1 458 459
459 1 2 1 1 459 460
460 1 2 1 1 460 461
461 1 2 1 1 461 462
462 1 2 1 1 462 463
463 1 2 1 1 463 464
464 1 2 1 1 464 465
465 1 2 1 1 465 466
466 1 2 1 1 466 467
467 1 2 1 1 467 468
468 1 2 1 1 468 469
469 1 2 1 1 469 470
470 1 2 1 1 470 471
471 1 2 1 1 471 472
472 1 2 1 1 472 473
473 1 2 1 1 473 474
474 1 2 1 1 474 475
475 1 2 1 1 475 476
476 1 2 1 1 476 477
477 1 2 1 1 477 478
478 1 2 1 1 478 479
479 1 2 1 1 479 480
480 1 2 1 1 480 481
481 1 2 1 1 481 482
482 1 2 1 1 482 483
483 1 2 1 1 483 484
484 1 2 1 1 484 485
485 1 2 1 1 485 486
486 1 2 1 1 486 487
487 1 2 1 1 487 488
488 1 2 1 1 488 489
489 1 2 1 1 489 490
490 1 2 1 1 490 491
491 1 2 1 1 491 492
492 1 2 1 1 492 493
493 1 2 1 1 493 494
494 1 2 1 1 494 495
495 1 2 1 1 495 496
496 1 2 1 1 496 497
497 1 2 1 1 497 498
498 1 2 1 1 498 499
499 1 2 1 1 499 500
500 1 2 1 1 500 501
501 1 2 1 1 501 502
502 1 2 1 1 502 503
503 1 2 1 1 503 504
504 1 2 1 1 504 505
505 1 2 1 1 505 506
506 1 2 1 1 506 507
507 1 2 1 1 507 508
508 1 2 1 1 508 509
509 1 2 1 1 509 510
510 1 2 1 1 510 511
511 1 2 1 1 511 512
512 1 2 1 1 512 513
513 15 2 2 1 1
514 15 2 3 1 513
$EndElements
