$MeshFormat
2.2 0 8
$EndMeshFormat
$PhysicalNames
3
1 1 "cell"
0 2 "left"
0 3 "right"
$EndPhysicalNames
$Nodes
257
1 0.000000000000000E+000 0.0 0.0
2 2.617187500000000E-004 0.0 0.0
3 5.234375000000000E-004 0.0 0.0
4 7.851562500000001E-004 0.0 0.0
5 1.046875000000000E-003 0.0 0.0
6 1.308593750000000E-003 0.0 0.0
7 1.570312500000000E-003 0.0 0.0
8 1.832031250000000E-003 0.0 0.0
9 2.093750000000000E-003 0.0 0.0
10 2.355468750000000E-003 0.0 0.0
11 2.617187500000000E-003 0.0 0.0
12 2.878906250000000E-003 0.0 0.0
13 3.140625000000000E-003 0.0 0.0
14 3.402343750000000E-003 0.0 0.0
15 3.664062500000000E-003 0.0 0.0
16 3.925781250000001E-003 0.0 0.0
17 4.187500000000000E-003 0.0 0.0
18 4.449218750000000E-003 0.0 0.0
19 4.710937500000000E-003 0.0 0.0
20 4.972656250000001E-003 0.0 0.0
21 5.234375000000000E-003 0.0 0.0
22 5.496093750000000E-003 0.0 0.0
23 5.757812500000001E-003 0.0 0.0
24 6.019531250000001E-003 0.0 0.0
25 6.281250000000000E-003 0.0 0.0
26 6.542968750000000E-003 0.0 0.0
27 6.804687500000000E-003 0.0 0.0
28 7.066406250000001E-003 0.0 0.0
29 7.328125000000000E-003 0.0 0.0
30 7.589843750000000E-003 0.0 0.0
31 7.851562500000001E-003 0.0 0.0
32 8.113281250000000E-003 0.0 0.0
33 8.375000000000001E-003 0.0 0.0
34 8.636718750000001E-003 0.0 0.0
35 8.898437500000000E-003 0.0 0.0
36 9.160156250000001E-003 0.0 0.0
37 9.421875000000000E-003 0.0 0.0
38 9.683593750000000E-003 0.0 0.0
39 9.945312500000001E-003 0.0 0.0
40 1.020703125000000E-002 0.0 0.0
41 1.046875000000000E-002 0.0 0.0
42 1.073046875000000E-002 0.0 0.0
43 1.099218750000000E-002 0.0 0.0
44 1.125390625000000E-002 0.0 0.0
45 1.151562500000000E-002 0.0 0.0
46 1.177734375000000E-002 0.0 0.0
47 1.203906250000000E-002 0.0 0.0
48 1.230078125000000E-002 0.0 0.0
49 1.256250000000000E-002 0.0 0.0
50 1.282421875000000E-002 0.0 0.0
51 1.308593750000000E-002 0.0 0.0
52 1.334765625000000E-002 0.0 0.0
53 1.360937500000000E-002 0.0 0.0
54 1.387109375000000E-002 0.0 0.0
55 1.413281250000000E-002 0.0 0.0
56 1.439453125000000E-002 0.0 0.0
57 1.465625000000000E-002 0.0 0.0
58 1.491796875000000E-002 0.0 0.0
59 1.517968750000000E-002 0.0 0.0
60 1.544140625000000E-002 0.0 0.0
61 1.570312500000000E-002 0.0 0.0
62 1.596484375000000E-002 0.0 0.0
63 1.622656250000000E-002 0.0 0.0
64 1.648828125000000E-002 0.0 0.0
65 1.675000000000000E-002 0.0 0.0
66 1.701171875000000E-002 0.0 0.0
67 1.727343750000000E-002 0.0 0.0
68 1.753515625000000E-002 0.0 0.0
69 1.779687500000000E-002 0.0 0.0
70 1.805859375000000E-002 0.0 0.0
71 1.832031250000000E-002 0.0 0.0
72 1.858203125000000E-002 0.0 0.0
73 1.884375000000000E-002 0.0 0.0
74 1.910546875000000E-002 0.0 0.0
75 1.936718750000000E-002 0.0 0.0
76 1.962890625000000E-002 0.0 0.0
77 1.989062500000000E-002 0.0 0.0
78 2.015234375000000E-002 0.0 0.0
79 2.041406250000000E-002 0.0 0.0
80 2.067578125000000E-002 0.0 0.0
81 2.093750000000000E-002 0.0 0.0
82 2.119921875000000E-002 0.0 0.0
83 2.146093750000000E-002 0.0 0.0
84 2.172265625000000E-002 0.0 0.0
85 2.198437500000000E-002 0.0 0.0
86 2.224609375000000E-002 0.0 0.0
87 2.250781250000000E-002 0.0 0.0
88 2.276953125000000E-002 0.0 0.0
89 2.303125000000000E-002 0.0 0.0
90 2.329296875000000E-002 0.0 0.0
91 2.355468750000000E-002 0.0 0.0
92 2.381640625000000E-002 0.0 0.0
93 2.407812500000000E-002 0.0 0.0
94 2.433984375000000E-002 0.0 0.0
95 2.460156250000000E-002 0.0 0.0
96 2.486328125000000E-002 0.0 0.0
97 2.512500000000000E-002 0.0 0.0
98 2.538671875000000E-002 0.0 0.0
99 2.564843750000000E-002 0.0 0.0
100 2.591015625000000E-002 0.0 0.0
101 2.617187500000000E-002 0.0 0.0
102 2.643359375000000E-002 0.0 0.0
103 2.669531250000000E-002 0.0 0.0
104 2.695703125000000E-002 0.0 0.0
105 2.721875000000000E-002 0.0 0.0
106 2.748046875000000E-002 0.0 0.0
107 2.774218750000000E-002 0.0 0.0
108 2.800390625000000E-002 0.0 0.0
109 2.826562500000000E-002 0.0 0.0
110 2.852734375000000E-002 0.0 0.0
111 2.878906250000000E-002 0.0 0.0
112 2.905078125000000E-002 0.0 0.0
113 2.931250000000000E-002 0.0 0.0
114 2.957421875000000E-002 0.0 0.0
115 2.983593750000000E-002 0.0 0.0
116 3.009765625000000E-002 0.0 0.0
117 3.035937500000000E-002 0.0 0.0
118 3.062109375000000E-002 0.0 0.0
119 3.088281250000000E-002 0.0 0.0
120 3.114453125000000E-002 0.0 0.0
121 3.140625000000000E-002 0.0 0.0
122 3.166796875000000E-002 0.0 0.0
123 3.192968750000001E-002 0.0 0.0
124 3.219140625000000E-002 0.0 0.0
125 3.245312500000000E-002 0.0 0.0
126 3.271484375000000E-002 0.0 0.0
127 3.297656250000000E-002 0.0 0.0
128 3.323828125000000E-002 0.0 0.0
129 3.350000000000000E-002 0.0 0.0
130 3.376171875000000E-002 0.0 0.0
131 3.402343750000000E-002 0.0 0.0
132 3.428515625000000E-002 0.0 0.0
133 3.454687500000001E-002 0.0 0.0
134 3.480859375000001E-002 0.0 0.0
135 3.507031250000000E-002 0.0 0.0
136 3.533203125000000E-002 0.0 0.0
137 3.559375000000000E-002 0.0 0.0
138 3.585546875000000E-002 0.0 0.0
139 3.611718750000000E-002 0.0 0.0
140 3.637890625000000E-002 0.0 0.0
141 3.664062500000000E-002 0.0 0.0
142 3.690234375000000E-002 0.0 0.0
143 3.716406250000000E-002 0.0 0.0
144 3.742578125000001E-002 0.0 0.0
145 3.768750000000000E-002 0.0 0.0
146 3.794921875000000E-002 0.0 0.0
147 3.821093750000000E-002 0.0 0.0
148 3.847265625000000E-002 0.0 0.0
149 3.873437500000000E-002 0.0 0.0
150 3.899609375000000E-002 0.0 0.0
151 3.925781250000000E-002 0.0 0.0
152 3.951953125000000E-002 0.0 0.0
153 3.978125000000000E-002 0.0 0.0
154 4.004296875000001E-002 0.0 0.0
155 4.030468750000001E-002 0.0 0.0
156 4.056640625000000E-002 0.0 0.0
157 4.082812500000000E-002 0.0 0.0
158 4.108984375000000E-002 0.0 0.0
159 4.135156250000000E-002 0.0 0.0
160 4.161328125000000E-002 0.0 0.0
161 4.187500000000000E-002 0.0 0.0
162 4.213671875000000E-002 0.0 0.0
163 4.239843750000000E-002 0.0 0.0
164 4.266015625000000E-002 0.0 0.0
165 4.292187500000001E-002 0.0 0.0
166 4.318359375000001E-002 0.0 0.0
167 4.344531250000000E-002 0.0 0.0
168 4.370703125000000E-002 0.0 0.0
169 4.396875000000000E-002 0.0 0.0
170 4.423046875000000E-002 0.0 0.0
171 4.449218750000000E-002 0.0 0.0
172 4.475390625000000E-002 0.0 0.0
173 4.501562500000000E-002 0.0 0.0
174 4.527734375000000E-002 0.0 0.0
175 4.553906250000001E-002 0.0 0.0
176 4.580078125000001E-002 0.0 0.0
177 4.606250000000001E-002 0.0 0.0
178 4.632421875000000E-002 0.0 0.0
179 4.658593750000000E-002 0.0 0.0
180 4.684765625000000E-002 0.0 0.0
181 4.710937500000000E-002 0.0 0.0
182 4.737109375000000E-002 0.0 0.0
183 4.763281250000000E-002 0.0 0.0
184 4.789453125000000E-002 0.0 0.0
185 4.815625000000001E-002 0.0 0.0
186 4.841796875000001E-002 0.0 0.0
187 4.867968750000001E-002 0.0 0.0
188 4.894140625000000E-002 0.0 0.0
189 4.920312500000000E-002 0.0 0.0
190 4.946484375000000E-002 0.0 0.0
191 4.972656250000000E-002 0.0 0.0
192 4.998828125000000E-002 0.0 0.0
193 5.025000000000000E-002 0.0 0.0
194 5.051171875000000E-002 0.0 0.0
195 5.077343750000000E-002 0.0 0.0
196 5.103515625000001E-002 0.0 0.0
197 5.129687500000001E-002 0.0 0.0
198 5.155859375000001E-002 0.0 0.0
199 5.182031250000000E-002 0.0 0.0
200 5.208203125000000E-002 0.0 0.0
201 5.234375000000000E-002 0.0 0.0
202 5.260546875000000E-002 0.0 0.0
203 5.286718750000000E-002 0.0 0.0
204 5.312890625000000E-002 0.0 0.0
205 5.339062500000000E-002 0.0 0.0
206 5.365234375000001E-002 0.0 0.0
207 5.391406250000001E-002 0.0 0.0
208 5.417578125000001E-002 0.0 0.0
209 5.443750000000000E-002 0.0 0.0
210 5.469921875000000E-002 0.0 0.0
211 5.496093750000000E-002 0.0 0.0
212 5.522265625000000E-002 0.0 0.0
213 5.548437500000000E-002 0.0 0.0
214 5.574609375000000E-002 0.0 0.0
215 5.600781250000000E-002 0.0 0.0
216 5.626953125000000E-002 0.0 0.0
217 5.653125000000001E-002 0.0 0.0
218 5.679296875000001E-002 0.0 0.0
219 5.705468750000001E-002 0.0 0.0
220 5.731640625000000E-002 0.0 0.0
221 5.757812500000000E-002 0.0 0.0
222 5.783984375000000E-002 0.0 0.0
223 5.810156250000000E-002 0.0 0.0
224 5.836328125000000E-002 0.0 0.0
225 5.862500000000000E-002 0.0 0.0
226 5.888671875000000E-002 0.0 0.0
227 5.914843750000001E-002 0.0 0.0
228 5.941015625000001E-002 0.0 0.0
229 5.967187500000001E-002 0.0 0.0
230 5.993359375000001E-002 0.0 0.0
231 6.019531250000000E-002 0.0 0.0
232 6.045703125000000E-002 0.0 0.0
233 6.071875000000000E-002 0.0 0.0
234 6.098046875000000E-002 0.0 0.0
235 6.124218750000000E-002 0.0 0.0
236 6.150390625000000E-002 0.0 0.0
237 6.176562500000001E-002 0.0 0.0
238 6.202734375000001E-002 0.0 0.0
239 6.228906250000001E-002 0.0 0.0
240 6.255078125000001E-002 0.0 0.0
241 6.281250000000001E-002 0.0 0.0
242 6.307421875000001E-002 0.0 0.0
243 6.333593750000001E-002 0.0 0.0
244 6.359765625000001E-002 0.0 0.0
245 6.385937500000001E-002 0.0 0.0
246 6.412109375000001E-002 0.0 0.0
247 6.438281250000000E-002 0.0 0.0
248 6.464453125000000E-002 0.0 0.0
249 6.490625000000000E-002 0.0 0.0
250 6.516796875000000E-002 0.0 0.0
251 6.542968750000000E-002 0.0 0.0
252 6.569140625000000E-002 0.0 0.0
253 6.595312500000000E-002 0.0 0.0
254 6.621484375000000E-002 0.0 0.0
255 6.647656250000000E-002 0.0 0.0
256 6.673828125000000E-002 0.0 0.0
257 6.700000000000000E-002 0.0 0.0
$EndNodes
$Elements
258
1 1 2 1 1 1 2
2 1 2 1 1 2 3
3 1 2 1 1 3 4
4 1 2 1 1 4 5
5 1 2 1 1 5 6
6 1 2 1 1 6 7
7 1 2 1 1 7 8
8 1 2 1 1 8 9
9 1 2 1 1 9 10
10 1 2 1 1 10 11
11 1 2 1 1 11 12
12 1 2 1 1 12 13
13 1 2 1 1 13 14
14 1 2 1 1 14 15
15 1 2 1 1 15 16
16 1 2 1 1 16 17
17 1 2 1 1 17 18
18 1 2 1 1 18 19
19 1 2 1 1 19 20
20 1 2 1 1 20 21
21 1 2 1 1 21 22
22 1 2 1 1 22 23
23 1 2 1 1 23 24
24 1 2 1 1 24 25
25 1 2 1 1 25 26
26 1 2 1 1 26 27
27 1 2 1 1 27 28
28 1 2 1 1 28 29
29 1 2 1 1 29 30
30 1 2 1 1 30 31
31 1 2 1 1 31 32
32 1 2 1 1 32 33
33 1 2 1 1 33 34
34 1 2 1 1 34 35
35 1 2 1 1 35 36
36 1 2 1 1 36 37
37 1 2 1 1 37 38
38 1 2 1 1 38 39
39 1 2 1 1 39 40
40 1 2 1 1 40 41
41 1 2 1 1 41 42
42 1 2 1 1 42 43
43 1 2 1 1 43 44
44 1 2 1 1 44 45
45 1 2 1 1 45 46
46 1 2 1 1 46 47
47 1 2 1 1 47 48
48 1 2 1 1 48 49
49 1 2 1 1 49 50
50 1 2 1 1 50 51
51 1 2 1 1 51 52
52 1 2 1 1 52 53
53 1 2 1 1 53 54
54 1 2 1 1 54 55
55 1 2 1 1 55 56
56 1 2 1 1 56 57
57 1 2 1 1 57 58
58 1 2 1 1 58 59
59 1 2 1 1 59 60
60 1 2 1 1 60 61
61 1 2 1 1 61 62
62 1 2 1 1 62 63
63 1 2 1 1 63 64
64 1 2 1 1 64 65
65 1 2 1 1 65 66
66 1 2 1 1 66 67
67 1 2 1 1 67 68
68 1 2 1 1 68 69
69 1 2 1 1 69 70
70 1 2 1 1 70 71
71 1 2 1 1 71 72
72 1 2 1 1 72 73
73 1 2 1 1 73 74
74 1 2 1 1 74 75
75 1 2 1 1 75 76
76 1 2 1 1 76 77
77 1 2 1 1 77 78
78 1 2 1 1 78 79
79 1 2 1 1 79 80
80 1 2 1 1 80 81
81 1 2 1 1 81 82
82 1 2 1 1 82 83
83 1 2 1 1 83 84
84 1 2 1 1 84 85
85 1 2 1 1 85 86
86 1 2 1 1 86 87
87 1 2 1 1 87 88
88 1 2 1 1 88 89
89 1 2 1 1 89 90
90 1 2 1 1 90 91
91 1 2 1 1 91 92
92 1 2 1 1 92 93
93 1 2 1 1 93 94
94 1 2 1 1 94 95
95 1 2 1 1 95 96
96 1 2 1 1 96 97
97 1 2 1 1 97 98
98 1 2 1 1 98 99
99 1 2 1 1 99 100
100 1 2 1 1 100 101
101 1 2 1 1 101 102
102 1 2 1 1 102 103
103 1 2 1 1 103 104
104 1 2 1 1 104 105
105 1 2 1 1 105 106
106 1 2 1 1 106 107
107 1 2 1 1 107 108
108 1 2 1 1 108 109
109 1 2 1 1 109 110
110 1 2 1 1 110 111
111 1 2 1 1 111 112
112 1 2 1 1 112 113
113 1 2 1 1 113 114
114 1 2 1 1 114 115
115 1 2 1 1 115 116
116 1 2 1 1 116 117
117 1 2 1 1 117 118
118 1 2 1 1 118 119
119 1 2 1 1 119 120
120 1 2 1 1 120 121
121 1 2 1 1 121 122
122 1 2 1 1 122 123
123 1 2 1 1 123 124
124 1 2 1 1 124 125
125 1 2 1 1 125 126
126 1 2 1 1 126 127
127 1 2 1 1 127 128
128 1 2 1 1 128 129
129 1 2 1 1 129 130
130 1 2 1 1 130 131
131 1 2 1 1 131 132
132 1 2 1 1 132 133
133 1 2 1 1 133 134
134 1 2 1 1 134 135
135 1 2 1 1 135 136
136 1 2 1 1 136 137
137 1 2 1 1 137 138
138 1 2 1 1 138 139
139 1 2 1 1 139 140
140 1 2 1 1 140 141
141 1 2 1 1 141 142
142 1 2 1 1 142 143
143 1 2 1 1 143 144
144 1 2 1 1 144 145
145 1 2 1 1 145 146
146 1 2 1 1 146 147
147 1 2 1 1 147 148
148 1 2 1 1 148 149
149 1 2 1 1 149 150
150 1 2 1 1 150 151
151 1 2 1 1 151 152
152 1 2 1 1 152 153
153 1 2 1 1 153 154
154 1 2 1 1 154 155
155 1 2 1 1 155 156
156 1 2 1 1 156 157
157 1 2 1 1 157 158
158 1 2 1 1 158 159
159 1 2 1 1 159 160
160 1 2 1 1 160 161
161 1 2 1 1 161 162
162 1 2 1 1 162 163
163 1 2 1 1 163 164
164 1 2 1 1 164 165
165 1 2 1 1 165 166
166 1 2 1 1 166 167
167 1 2 1 1 167 168
168 1 2 1 1 168 169
169 1 2 1 1 169 170
170 1 2 1 1 170 171
171 1 2 1 1 171 172
172 1 2 1 1 172 173
173 1 2 1 1 173 174
174 1 2 1 1 174 175
175 1 2 1 1 175 176
176 1 2 1 1 176 177
177 1 2 1 1 177 178
178 1 2 1 1 178 179
179 1 2 1 1 179 180
180 1 2 1 1 180 181
181 1 2 1 1 181 182
182 1 2 1 1 182 183
183 1 2 1 1 183 184
184 1 2 1 1 184 185
185 1 2 1 1 185 186
186 1 2 1 1 186 187
187 1 2 1 1 187 188
188 1 2 1 1 188 189
189 1 2 1 1 189 190
190 1 2 1 1 190 191
191 1 2 1 1 191 192
192 1 2 1 1 192 193
193 1 2 1 1 193 194
194 1 2 1 1 194 195
195 1 2 1 1 195 196
196 1 2 1 1 196 197
197 1 2 1 1 197 198
198 1 2 1 1 198 199
199 1 2 1 1 199 200
200 1 2 1 1 200 201
201 1 2 1 1 201 202
202 1 2 1 1 202 203
203 1 2 1 1 203 204
204 1 2 1 1 204 205
205 1 2 1 1 205 206
206 1 2 1 1 206 207
207 1 2 1 1 207 208
208 1 2 1 1 208 209
209 1 2 1 1 209 210
210 1 2 1 1 210 211
211 1 2 1 1 211 212
212 1 2 1 1 212 213
213 1 2 1 1 213 214
214 1 2 1 1 214 215
215 1 2 1 1 215 216
216 1 2 1 1 216 217
217 1 2 1 1 217 218
218 1 2 1 1 218 219
219 1 2 1 1 219 220
220 1 2 1 1 220 221
221 1 2 1 1 221 222
222 1 2 1 1 222 223
223 1 2 1 1 223 224
224 1 2 1 1 224 225
225 1 2 1 1 225 226
226 1 2 1 1 226 227
227 1 2 1 1 227 228
228 1 2 1 1 228 229
229 1 2 1 1 229 230
230 1 2 1 1 230 231
231 1 2 1 1 231 232
232 1 2 1 1 232 233
233 1 2 1 1 233 234
234 1 2 1 1 234 235
235 1 2 1 1 235 236
236 1 2 1 1 236 237
237 1 2 1 1 237 238
238 1 2 1 1 238 239
239 1 2 1 1 239 240
240 1 2 1 1 240 241
241 1 2 1 1 241 242
242 1 2 1 1 242 243
243 1 2 1 1 243 244
244 1 2 1 1 244 245
245 1 2 1 1 245 246
246 1 2 1 1 246 247
247 1 2 1 1 247 248
248 1 2 1 1 248 249
249 1 2 1 1 249 250
250 1 2 1 1 250 251
251 1 2 1 1 251 252
252 1 2 1 1 252 253
253 1 2 1 1 253 254
254 1 2 1 1 254 255
255 1 2 1 1 255 256
256 1 2 1 1 256 257
257 15 2 2 1 1
258 15 2 3 1 257
$EndElements
